<mxfile host="app.diagrams.net" modified="2024-07-16T15:14:57.193Z" agent="Mozilla/5.0 (Macintosh; Intel Mac OS X 10_15_7) AppleWebKit/537.36 (KHTML, like Gecko) Chrome/126.0.0.0 Safari/537.36" version="24.6.5" etag="EaZvJjPKFh2oqy-Hzc1r" type="github">
  <diagram name="Page-1" id="IXQBBAkT7rkqooFgbIez">
    <mxGraphModel>
      <root>
        <mxCell id="0" />
        <mxCell id="1" parent="0" />
      </root>
    </mxGraphModel>
  </diagram>
</mxfile>
